<svg xmlns="http://www.w3.org/2000/svg" version="1.1" xmlns:xlink="http://www.w3.org/1999/xlink" width="512" height="512" x="0" y="0" viewBox="0 0 512 512" style="enable-background:new 0 0 512 512" xml:space="preserve"><g><path d="M365.545 512h-302c-12.407 0-22.5-10.094-22.5-22.5V154.234c0-4.143 3.358-7.5 7.5-7.5s7.5 3.357 7.5 7.5V489.5c0 4.136 3.365 7.5 7.5 7.5h302c4.136 0 7.5-3.364 7.5-7.5V233.024c0-4.143 3.358-7.5 7.5-7.5s7.5 3.357 7.5 7.5V489.5c0 12.406-10.093 22.5-22.5 22.5zm45-45a7.5 7.5 0 0 1-7.5-7.5V198.237c-6.088 2.03-12.815 4.293-19.979 6.851a7.499 7.499 0 0 1-8.919-3.148c-4.63-7.568-9.049-14.451-12.948-20.524-18.946-29.515-30.383-47.33-21.146-73.492 3.619-10.249 11.012-18.476 20.818-23.164a40.771 40.771 0 0 1 12.173-3.644V52.5c0-4.136-3.364-7.5-7.5-7.5h-302c-4.135 0-7.5 3.364-7.5 7.5v66.734c0 4.143-3.358 7.5-7.5 7.5s-7.5-3.357-7.5-7.5V52.5c0-12.406 10.093-22.5 22.5-22.5h7.5v-7.5c0-12.406 10.093-22.5 22.5-22.5h302c12.407 0 22.5 10.094 22.5 22.5v46.57c0 4.143-3.358 7.5-7.5 7.5s-7.5-3.357-7.5-7.5V22.5c0-4.136-3.364-7.5-7.5-7.5h-302c-4.135 0-7.5 3.364-7.5 7.5V30h279.5c12.407 0 22.5 10.094 22.5 22.5v29.427c1.319.324 2.63.715 3.928 1.173a40.66 40.66 0 0 1 22.36 19.226 40.645 40.645 0 0 1 29.475-.925c21.158 7.471 32.293 30.762 24.823 51.919-8.067 22.849-24.408 30.841-50.586 39.878V459.5a7.498 7.498 0 0 1-7.499 7.5zm-36.722-293.688c3.039 4.734 6.391 9.955 9.928 15.632 6.317-2.196 12.205-4.156 17.542-5.933 31.86-10.604 46.4-15.444 53.194-34.686 4.717-13.358-2.314-28.063-15.673-32.78a25.693 25.693 0 0 0-23.824 3.563 7.502 7.502 0 0 1-11.704-4.133 25.694 25.694 0 0 0-16.307-17.73 25.8 25.8 0 0 0-6.529-1.397 7.67 7.67 0 0 1-.793-.051c-4.207-.209-8.412.63-12.313 2.495-6.191 2.96-11.329 8.007-13.144 14.626-4.095 14.922 1.484 32.137 19.623 60.394zM330.865 455.3h-96.32c-4.142 0-7.5-3.357-7.5-7.5s3.358-7.5 7.5-7.5h96.32c4.142 0 7.5 3.357 7.5 7.5s-3.358 7.5-7.5 7.5zm-136.32 0h-96.32c-4.142 0-7.5-3.357-7.5-7.5s3.358-7.5 7.5-7.5h96.32c4.142 0 7.5 3.357 7.5 7.5s-3.358 7.5-7.5 7.5zm136.32-50H98.225c-4.142 0-7.5-3.357-7.5-7.5s3.358-7.5 7.5-7.5h232.64c4.142 0 7.5 3.357 7.5 7.5s-3.358 7.5-7.5 7.5zm0-40H98.225c-4.142 0-7.5-3.357-7.5-7.5s3.358-7.5 7.5-7.5h232.64c4.142 0 7.5 3.357 7.5 7.5s-3.358 7.5-7.5 7.5zm0-40H98.225c-4.142 0-7.5-3.357-7.5-7.5s3.358-7.5 7.5-7.5h232.64c4.142 0 7.5 3.357 7.5 7.5s-3.358 7.5-7.5 7.5zm0-40H98.225c-4.142 0-7.5-3.357-7.5-7.5s3.358-7.5 7.5-7.5h232.64c4.142 0 7.5 3.357 7.5 7.5s-3.358 7.5-7.5 7.5zm-116.32-36.8a7.497 7.497 0 0 1-5.677-2.6c-11.597-13.436-26.213-14.44-47.187-14.44-39.955 0-63.699-10.451-70.571-31.063a7.5 7.5 0 0 1 4.743-9.487c3.93-1.306 8.178.813 9.487 4.743 5.734 17.197 33.804 20.808 56.341 20.808 20.798 0 38.255 1.127 52.864 13.901 14.609-12.774 32.065-13.901 52.864-13.901 22.538 0 50.607-3.61 56.341-20.808a7.501 7.501 0 0 1 14.23 4.744c-6.872 20.612-30.616 31.063-70.571 31.063-20.974 0-35.589 1.005-47.186 14.44a7.501 7.501 0 0 1-5.678 2.6zm35.633-52.976c-13.354 0-25.695-4.424-35.633-11.883-9.938 7.459-22.279 11.883-35.633 11.883-32.797 0-59.48-26.684-59.48-59.481s26.683-59.48 59.48-59.48c13.354 0 25.695 4.424 35.633 11.883 9.938-7.459 22.279-11.883 35.633-11.883 32.798 0 59.48 26.683 59.48 59.48s-26.682 59.481-59.48 59.481zm-24.704-22.507a44.229 44.229 0 0 0 24.705 7.508c24.527 0 44.48-19.954 44.48-44.481 0-24.526-19.954-44.48-44.48-44.48a44.235 44.235 0 0 0-24.704 7.507c8.083 10.159 12.918 23.013 12.918 36.974s-4.836 26.813-12.919 36.972zm-46.562-81.454c-24.526 0-44.48 19.954-44.48 44.48 0 24.527 19.954 44.481 44.48 44.481a44.231 44.231 0 0 0 24.705-7.508c-8.083-10.158-12.919-23.013-12.919-36.974s4.836-26.814 12.918-36.974a44.241 44.241 0 0 0-24.704-7.505zm35.633 17.884c-5.555 7.424-8.848 16.632-8.848 26.596s3.292 19.173 8.848 26.596c5.555-7.423 8.848-16.632 8.848-26.596s-3.293-19.172-8.848-26.596z" fill="#ffffff" opacity="1" data-original="#000000"></path></g></svg>
