<svg xmlns="http://www.w3.org/2000/svg" version="1.1" xmlns:xlink="http://www.w3.org/1999/xlink" width="512" height="512" x="0" y="0" viewBox="0 0 480 480" style="enable-background:new 0 0 512 512" xml:space="preserve" class=""><g><path d="M403.98 287.602 302.16 185.777a8.227 8.227 0 0 0-11.312 0l-45.258 45.254a8.004 8.004 0 0 0 0 11.313l5.656 5.656-15.281 15.281-12.254 2.438-23.375-23.375A8.001 8.001 0 0 0 194.68 240h-30.625l-14.633-14.625c3.125-3.121 3.125-8.188 0-11.313l-45.246-45.261a8.004 8.004 0 0 0-5.66-2.348 7.99 7.99 0 0 0-5.66 2.348L2.343 259.313a7.997 7.997 0 0 0 0 11.312l45.254 45.254a7.997 7.997 0 0 0 11.312 0l51.945 51.945a23.807 23.807 0 0 0 .98 22.57 23.808 23.808 0 0 0 19.388 11.598c.511 12.29 10.367 22.125 22.656 22.617.523 12.254 10.34 22.067 22.59 22.59a23.952 23.952 0 0 0 40.8 15.711l8.504 8.504a23.92 23.92 0 0 0 25.59 5.527 23.921 23.921 0 0 0 15.317-21.23c12.273-.504 22.105-10.34 22.605-22.613 12.281-.52 22.121-10.356 22.64-22.633a23.897 23.897 0 0 0 15.72-40.8l-8.461-8.466 22.605-22.656 5.656 5.664a7.997 7.997 0 0 0 11.313 0l45.258-45.254a8.004 8.004 0 0 0 0-11.312zM254.078 318.71a7.997 7.997 0 0 1 0 11.312 8.165 8.165 0 0 1-11.312 0l-33.942-33.933c-3.125-3.125-8.191-3.125-11.312 0-9.375 9.379-24.578 9.379-33.953 0l-11.282 11.308a40.025 40.025 0 0 0 9.856 7.09l-40.965 40.992-28.313-28.28 71.2-71.2h27.312zm-200.8-19.8-33.97-33.942 79.204-79.2 33.941 33.942zm84.855-62.224L149.43 248l-67.895 67.879-11.312-11.313zm62.144 217.235a7.883 7.883 0 0 1-5.597-2.297 8 8 0 0 1-.09-11.2l.09-.09 16.437-16.44 6.168-6.153-11.293-11.344-6.187 6.188-16.504 16.437-.07.09a7.999 7.999 0 0 1-11.032-.367 7.996 7.996 0 0 1-.168-11.035l22.649-22.633-11.313-11.308-22.625 22.628a7.998 7.998 0 0 1-11.316.004 7.997 7.997 0 0 1-.004-11.312l22.633-22.625-11.313-11.313-22.64 22.625a8.179 8.179 0 0 1-11.305 0 8.004 8.004 0 0 1 0-11.312l53.48-53.504a39.794 39.794 0 0 0 22.352-6.473l28.848 28.848c9.5 9.066 24.445 9.066 33.945 0 9.371-9.371 9.371-24.563 0-33.938l-28.078-28.078 70.527 70.52-2.402 2.398a23.734 23.734 0 0 0-20.285 3.676 23.724 23.724 0 0 0-9.754 18.164c-12.356.524-22.223 10.48-22.633 22.844-12.277.305-22.188 10.125-22.606 22.398a23.717 23.717 0 0 0-21.863 29.969l-2.402 2.399a7.926 7.926 0 0 1-5.649 2.234zm48.145 6.215a8.18 8.18 0 0 1-11.313 0L225.79 448.8a8.001 8.001 0 0 1 11.29-11.297l11.343 11.297a7.905 7.905 0 0 1 2.344 5.648 8.001 8.001 0 0 1-2.344 5.688zm22.625-22.633a7.997 7.997 0 0 1-11.313 0l-11.312-11.313a8.007 8.007 0 0 1-2.348-5.66c0-2.12.848-4.16 2.348-5.66a7.905 7.905 0 0 1 5.648-2.344c2.121 0 4.157.844 5.657 2.344l11.312 11.313a7.99 7.99 0 0 1 2.348 5.66 7.99 7.99 0 0 1-2.34 5.66zm22.617-22.633a8.179 8.179 0 0 1-11.305 0l-11.312-11.312a8 8 0 0 1 11.312-11.313l11.313 11.313a8.001 8.001 0 0 1 2.344 5.656 7.907 7.907 0 0 1-2.352 5.656zm22.637-22.625a7.99 7.99 0 0 1-5.66 2.348 8.004 8.004 0 0 1-5.66-2.348l-11.31-11.308a8.005 8.005 0 0 1-.007-11.329 8.005 8.005 0 0 1 11.328-.007l11.285 11.336a7.992 7.992 0 0 1 0 11.308zm2.832-53.742-67.88-67.879 11.306-11.313 67.886 67.887zm33.945-11.305-90.52-90.511 33.946-33.946 90.512 90.516zM50.68 456V328h-16v128c0 13.254 10.742 24 24 24h104v-16h-104a8 8 0 0 1-8-8zm0 0" fill="#4c5e54" opacity="1" data-original="#000000" class=""></path><path d="M354.68 456a8 8 0 0 1-8 8h-64v16h64c13.254 0 24-10.746 24-24v-96h-16zM50.68 24a8 8 0 0 1 8-8h224v56c0 13.254 10.742 24 24 24h48v128h16V88.238c0-1.972-.73-3.875-2.051-5.343l-72-80.239A7.988 7.988 0 0 0 290.679 0h-232c-13.257 0-24 10.746-24 24v168h16zm248 48V28.922L344.535 80H306.68a8 8 0 0 1-8-8zm0 0" fill="#4c5e54" opacity="1" data-original="#000000" class=""></path><path d="M82.68 48h16v16h-16zM114.68 48h64v16h-64zM82.68 80h96v16h-96zM82.68 128h32v16h-32zM130.68 128h192v16h-192zM146.68 176h120v16h-120zm0 0" fill="#4c5e54" opacity="1" data-original="#000000" class=""></path></g></svg>
