<svg xmlns="http://www.w3.org/2000/svg" version="1.1" xmlns:xlink="http://www.w3.org/1999/xlink" width="512" height="512" x="0" y="0" viewBox="0 0 512 512" style="enable-background:new 0 0 512 512" xml:space="preserve" class=""><g><path d="M174.464 216.836h-72.953M256.432 216.836h-41.968M76.976 162.74h179.456M190.929 300.18l-7.507-7.507c-15.608-15.608-40.912-15.608-56.52 0h0c-15.608 15.608-15.608 40.912 0 56.52l64.027 64.027a5 5 0 0 0 7.071 0l64.027-64.027c15.608-15.608 15.608-40.912 0-56.52h0c-15.608-15.608-40.912-15.608-56.52 0L198 300.18a5 5 0 0 1-7.071 0z" style="stroke-width:15;stroke-linecap:round;stroke-linejoin:round;stroke-miterlimit:10;" fill="none" stroke="#4c5e54" stroke-width="15" stroke-linecap="round" stroke-linejoin="round" stroke-miterlimit="10" data-original="#000000" class="" opacity="1"></path><path d="m194.915 302.363-10.14 30.419a2 2 0 0 0 .239 1.75l18.9 28.047a2 2 0 0 1 .239 1.75l-9.586 28.758a1.997 1.997 0 0 0-.103.632v20.036M214.464 465.194h95.975M118.45 465.194h56.014M338.818 232.742v37.25a8 8 0 0 0 8 8h38.583a8 8 0 0 0 8-8v-37.444M347.053 279.2l-3.22 46.88M385.193 279.6l8.14 118.46c1.09 15.78-11.41 29.17-27.22 29.17-15.17 0-27.3-12.33-27.3-27.27 0-.63.03-1.26.07-1.9l2.54-36.96M431.6 231.357H300.374M300.761 148.219H431.6M470.787 249.345h-26.723c-5.523 0-10-4.477-10-10v-99.114c0-5.523 4.477-10 10-10h26.723a4 4 0 0 1 4 4v111.114a4 4 0 0 1-4 4zM261.432 130.231h26.723c5.523 0 10 4.477 10 10v99.114c0 5.523-4.477 10-10 10h-26.723a4 4 0 0 1-4-4V134.231a4 4 0 0 1 4-4zM66.976 83.903V59.46a4.3 4.3 0 0 1 4.299-4.299h47.551M381.473 425.194v45.247a4.3 4.3 0 0 1-4.299 4.299H352.89M270.181 55.161h106.994a4.3 4.3 0 0 1 4.299 4.299V147M216.651 36.29v-6.604c0-12.253-9.933-22.187-22.187-22.187s-22.187 9.933-22.187 22.187v6.475M37.213 312.83V89.22c0-2.37 1.93-4.3 4.3-4.3h77.31M351.713 425.19v75.01c0 2.38-1.92 4.3-4.3 4.3h-128.85M37.213 347.83v68.05c0 5.3 2.11 10.39 5.85 14.14l68.53 68.61a19.98 19.98 0 0 0 14.15 5.87h57.82" style="stroke-width:15;stroke-linecap:round;stroke-linejoin:round;stroke-miterlimit:10;" fill="none" stroke="#4c5e54" stroke-width="15" stroke-linecap="round" stroke-linejoin="round" stroke-miterlimit="10" data-original="#000000" class="" opacity="1"></path><path d="M271.729 84.922h75.685a4.3 4.3 0 0 1 4.299 4.299V147M117.45 501.172v-77.011H40.44M187.193 101.6h76.76c2.21 0 4-1.79 4-4V52.21c0-8.28-6.71-15-15-15h-116.98c-8.29 0-15 6.72-15 15V97.6c0 2.21 1.79 4 4 4h27.22" style="stroke-width:15;stroke-linecap:round;stroke-linejoin:round;stroke-miterlimit:10;" fill="none" stroke="#4c5e54" stroke-width="15" stroke-linecap="round" stroke-linejoin="round" stroke-miterlimit="10" data-original="#000000" class="" opacity="1"></path></g></svg>
