<svg xmlns="http://www.w3.org/2000/svg" version="1.1" xmlns:xlink="http://www.w3.org/1999/xlink" width="512" height="512" x="0" y="0" viewBox="0 0 512 512" style="enable-background:new 0 0 512 512" xml:space="preserve"><g><path d="M8.051 69.667V27.5c0-11.046 8.954-20 20-20h270.27l84.833 84.833v156.282M360.071 504.5H28.051c-11.046 0-20-8.954-20-20v-382" style="stroke-width:15;stroke-linecap:round;stroke-linejoin:round;stroke-miterlimit:10;" fill="none" stroke="#ffffff" stroke-width="15" stroke-linecap="round" stroke-linejoin="round" stroke-miterlimit="10" data-original="#000000" opacity="1"></path><path d="M298.321 7.5v64.833c0 11.046 8.954 20 20 20h64.833L298.321 7.5zM72.974 98.5h41.129v114.027H72.974zM141.017 127.5h41.129v85.027h-41.129zM209.06 69.667h41.129v142.86H209.06zM277.104 153.667h41.129v58.86h-41.129zM53.148 244.6h284.91M72.974 296.421h122.629V334H72.974zM195.685 296.421h122.629V334H195.685zM88.477 371.579h65.861M88.477 409.159h65.861M88.477 446.738h65.861M236.868 371.579h65.861M236.868 409.159h65.861M236.868 446.738h65.861M195.603 334v123.115M425.51 236.12c-43.131 0-78.096 35.019-78.096 78.216s34.965 78.216 78.096 78.216 78.096-35.019 78.096-78.216-34.965-78.216-78.096-78.216z" style="stroke-width:15;stroke-linecap:round;stroke-linejoin:round;stroke-miterlimit:10;" fill="none" stroke="#ffffff" stroke-width="15" stroke-linecap="round" stroke-linejoin="round" stroke-miterlimit="10" data-original="#000000" opacity="1"></path><path d="M466.94 333.931a45.752 45.752 0 0 0 4.388-19.596c0-25.33-20.554-45.938-45.819-45.938s-45.819 20.608-45.819 45.938c0 25.33 20.554 45.939 45.819 45.939a45.429 45.429 0 0 0 20.748-5M490.949 430.127H360.071c-7.18 0-13-5.82-13-13v-11.186c0-7.18 5.82-13 13-13h130.877c7.18 0 13 5.82 13 13v11.186c.001 7.18-5.82 13-12.999 13zM490.949 467.314H360.071c-7.18 0-13-5.82-13-13v-11.186c0-7.18 5.82-13 13-13h130.877c7.18 0 13 5.82 13 13v11.186c.001 7.179-5.82 13-12.999 13zM490.949 504.5H360.071c-7.18 0-13-5.82-13-13v-11.186c0-7.18 5.82-13 13-13h130.877c7.18 0 13 5.82 13 13V491.5c.001 7.18-5.82 13-12.999 13z" style="stroke-width:15;stroke-linecap:round;stroke-linejoin:round;stroke-miterlimit:10;" fill="none" stroke="#ffffff" stroke-width="15" stroke-linecap="round" stroke-linejoin="round" stroke-miterlimit="10" data-original="#000000" opacity="1"></path></g></svg>
