<svg xmlns="http://www.w3.org/2000/svg" version="1.1" xmlns:xlink="http://www.w3.org/1999/xlink" width="512" height="512" x="0" y="0" viewBox="0 0 512 512" style="enable-background:new 0 0 512 512" xml:space="preserve" class=""><g><path d="M171.23 291.72h-48.55c-3.31 0-6 2.69-6 6v48.55c0 3.31 2.69 6 6 6h48.55c3.31 0 6-2.69 6-6v-48.55c0-3.32-2.69-6-6-6zm-6 48.55h-36.55v-36.55h36.55zm35.19-36.32c0-3.31 2.69-6 6-6h88.7c3.31 0 6 2.69 6 6s-2.69 6-6 6h-88.7c-3.31 0-6-2.69-6-6zm74.9 30.09c3.31 0 6 2.69 6 6s-2.69 6-6 6h-68.89c-3.31 0-6-2.69-6-6s2.69-6 6-6zm-104.09 41.21h-48.55c-3.31 0-6 2.69-6 6v48.56c0 3.31 2.69 6 6 6h48.55c3.31 0 6-2.69 6-6v-48.56c0-3.31-2.69-6-6-6zm-6 48.56h-36.55v-36.56h36.55zm41.19-42.33h103.79c3.31 0 6 2.69 6 6s-2.69 6-6 6H206.42c-3.31 0-6-2.69-6-6s2.69-6 6-6zm74.9 42.1c0 3.31-2.69 6-6 6h-68.89c-3.31 0-6-2.69-6-6s2.69-6 6-6h68.89c3.31 0 6 2.68 6 6zM154.6 192.68c14.06 0 25.5-11.44 25.5-25.5s-11.44-25.5-25.5-25.5-25.5 11.44-25.5 25.5 11.44 25.5 25.5 25.5zm0-38.99c7.44 0 13.5 6.05 13.5 13.5s-6.05 13.5-13.5 13.5-13.5-6.05-13.5-13.5 6.06-13.5 13.5-13.5zm45.91 87.1c0-25.32-20.6-45.92-45.92-45.92s-45.92 20.6-45.92 45.92v2.06c0 8.04 6.54 14.59 14.59 14.59h62.66c8.04 0 14.59-6.54 14.59-14.59zm-12 2.06a2.59 2.59 0 0 1-2.59 2.59h-62.66a2.59 2.59 0 0 1-2.59-2.59v-2.06c0-18.7 15.21-33.92 33.92-33.92s33.92 15.22 33.92 33.92zm45.82-80.86c0-3.31 2.69-6 6-6h90.46c3.31 0 6 2.69 6 6s-2.69 6-6 6h-90.46c-3.31 0-6-2.69-6-6zm0 36.09c0-3.31 2.69-6 6-6h90.46c3.31 0 6 2.69 6 6s-2.69 6-6 6h-90.46c-3.31 0-6-2.69-6-6zm96.46 42.09h-90.46c-3.31 0-6-2.69-6-6s2.69-6 6-6h90.46c3.31 0 6 2.69 6 6s-2.69 6-6 6zm123.02 45.41-.03-.66a5.99 5.99 0 0 0-5.02-5.62c-12.45-2.04-20.7-9.04-25.2-21.41a6.004 6.004 0 0 0-5.64-3.95h-29.44V96.18c0-14.94-12.16-27.1-27.1-27.1h-58.21v-2.1c0-8.31-6.76-15.06-15.06-15.06H264.8C262.09 31.12 244.26 15 222.73 15s-39.36 16.12-42.06 36.92h-23.31c-8.31 0-15.06 6.76-15.06 15.06v2.1H84.08c-14.94 0-27.1 12.16-27.1 27.1V469.9c0 14.94 12.16 27.1 27.1 27.1h277.3c14.94 0 27.1-12.16 27.1-27.1v-41.76c70.26-43.32 68.6-76.78 65.33-142.56zm-92.43-204.5c8.33 0 15.1 6.77 15.1 15.1v157.76h-13.9V100.98c0-3.31-2.69-6-6-6h-53.41v-13.9zm-10.8 328.98v49.03H94.89V106.98h47.41v3.26c0 8.31 6.76 15.06 15.06 15.06H288.1c8.31 0 15.06-6.76 15.06-15.06v-3.26h47.41v146.96h-3.53c-2.52 0-4.78 1.58-5.64 3.95-4.5 12.37-12.75 19.38-25.2 21.41a6 6 0 0 0-5.02 5.62l-.03.65c-2.8 56.4-4.42 89.04 39.43 124.49zM154.3 66.98c0-1.66 1.4-3.06 3.06-3.06h28.96c3.31 0 6-2.69 6-6v-.51c0-16.77 13.64-30.41 30.41-30.41s30.41 13.64 30.41 30.41v.51c0 3.31 2.69 6 6 6h28.96c1.66 0 3.06 1.4 3.06 3.06v43.26c0 1.66-1.4 3.06-3.06 3.06H157.36c-1.66 0-3.06-1.4-3.06-3.06zM361.38 485H84.08c-8.33 0-15.1-6.77-15.1-15.1V96.18c0-8.33 6.77-15.1 15.1-15.1h58.21v13.9h-53.4c-3.31 0-6 2.69-6 6V465.1c0 3.31 2.69 6 6 6h267.69c3.31 0 6-2.69 6-6v-46.05c4.29 2.99 8.91 6.02 13.9 9.1v41.76c0 8.32-6.77 15.09-15.1 15.09zm21.1-67.25c-62.6-38.63-62.59-65.71-59.54-127.62 13-3.39 22.44-11.51 28.14-24.19h62.8c5.7 12.69 15.14 20.8 28.14 24.19 3.05 61.91 3.06 88.98-59.54 127.62zm46.59-113.59c2.34 2.34 2.34 6.14 0 8.49l-54.17 54.1c-1.17 1.17-2.71 1.75-4.24 1.75s-3.07-.58-4.24-1.75l-30.53-30.49a6.002 6.002 0 0 1 0-8.49 6.002 6.002 0 0 1 8.49 0l26.29 26.26 49.93-49.87c2.33-2.34 6.13-2.34 8.47 0z" fill="#4c5e54" opacity="1" data-original="#000000" class=""></path></g></svg>
